<svg xmlns="http://www.w3.org/2000/svg" style="display: none;">
  
    <symbol id="icon-angle-down" viewBox="0 0 512 512">
      <path d="m264 380l-3 3-6-6-245-245 12-12 239 239 233-233 6-6 12 12z"/>
    </symbol>
  
    <symbol id="icon-angle-left" viewBox="0 0 512 512">
      <path d="m122 254l-3-3 7-6 244-245 13 12-239 239 233 233 6 6-13 12z"/>
    </symbol>
  
    <symbol id="icon-angle-right" viewBox="0 0 512 512">
      <path d="m390 248l3 3-251 251-13-12 7-6 232-233-239-239 13-12z"/>
    </symbol>
  
    <symbol id="icon-angle-up" viewBox="0 0 512 512">
      <path d="m258 122l3-3 6 7 245 244-12 13-239-239-233 233-6 6-12-13z"/>
    </symbol>
  
    <symbol id="icon-nav-thin" viewBox="0 0 512 512">
      <path d="m24 94l0 54 488 0 0-54z m0 135l0 54 488 0 0-54z m0 135l0 54 488 0 0-54z"/>
    </symbol>
  
    <symbol id="icon-close" viewBox="0 0 512 512">
      <path d="m509 39l-39-39-215 215-216-215-39 39 215 216-215 215 39 39 216-215 215 215 39-39-215-215 215-216"/>
    </symbol>
  
    <symbol id="icon-angle-down-1" viewBox="0 0 512 512">
      <path d="m399 210c0 3-1 5-3 7l-133 133c-2 2-5 3-7 3c-2 0-5-1-7-3l-133-133c-2-2-3-4-3-7c0-2 1-4 3-6l15-15c1-1 4-2 6-2c3 0 5 1 7 2l112 113l112-113c2-1 4-2 7-2c2 0 5 1 6 2l15 15c2 2 3 4 3 6z"/>
    </symbol>
  
    <symbol id="icon-angle-left-1" viewBox="0 0 512 512">
      <path d="m344 155c0 3-1 5-3 7l-112 112l112 113c2 1 3 4 3 6c0 3-1 5-3 7l-14 14c-2 2-5 3-7 3c-2 0-5-1-7-3l-133-133c-2-2-3-4-3-7c0-2 1-4 3-6l133-133c2-2 5-3 7-3c2 0 5 1 7 3l14 14c2 2 3 4 3 6z"/>
    </symbol>
  
    <symbol id="icon-angle-right-1" viewBox="0 0 512 512">
      <path d="m335 274c0 3-1 5-3 7l-133 133c-2 2-5 3-7 3c-2 0-5-1-7-3l-14-14c-2-2-3-4-3-7c0-2 1-5 3-6l112-113l-112-112c-2-2-3-4-3-7c0-2 1-4 3-6l14-14c2-2 5-3 7-3c2 0 5 1 7 3l133 133c2 2 3 4 3 6z"/>
    </symbol>
  
    <symbol id="icon-angle-up-1" viewBox="0 0 512 512">
      <path d="m399 338c0 3-1 5-3 7l-15 14c-1 2-4 3-6 3c-3 0-5-1-7-3l-112-112l-112 112c-2 2-4 3-7 3c-2 0-5-1-6-3l-15-14c-2-2-3-4-3-7c0-2 1-4 3-6l133-133c2-2 5-3 7-3c2 0 5 1 7 3l133 133c2 2 3 4 3 6z"/>
    </symbol>
  
    <symbol id="icon-chat-bubble" viewBox="0 0 512 512">
      <path d="m256 110c-39 0-75 6-109 20c-34 13-61 31-81 53c-19 23-29 47-29 73c0 21 6 42 20 61c14 19 33 36 58 50l24 14l-7 28c-5 17-12 34-20 49c29-12 55-28 78-49l13-11l16 2c13 2 25 2 37 2c39 0 75-6 109-20c34-13 61-31 81-53c19-23 29-47 29-73c0-26-10-50-29-73c-20-22-47-40-81-53c-34-14-70-20-109-20z m256 146c0 33-11 64-34 92c-23 28-54 50-93 66c-40 17-83 25-129 25c-13 0-27-1-41-2c-38 33-82 56-132 69c-9 2-20 4-32 6l-2 0c-3 0-5-1-8-3c-2-2-3-5-4-8l0 0c-1-1-1-2 0-4c0-1 0-2 0-2c0-1 1-2 2-3l1-3c0 0 1-1 2-2c2-2 2-3 3-3c1-1 4-5 8-10c5-5 8-8 10-10c2-3 5-6 9-12c4-5 7-10 9-14c3-5 5-10 8-17c3-7 5-14 8-22c-30-17-54-38-71-63c-17-25-26-51-26-80c0-33 11-64 34-92c23-28 54-50 93-66c40-17 83-25 129-25c46 0 89 8 129 25c39 16 70 38 93 66c23 28 34 59 34 92z"/>
    </symbol>
  
    <symbol id="icon-facebook" viewBox="0 0 512 512">
      <path d="m195 115c0 11 0 63 0 63l-47 0l0 78l47 0l0 230l95 0l0-230l65 0c0 0 6-37 8-78c-8 0-72 0-72 0c0 0 0-45 0-53c0-8 10-19 21-19c10 0 31 0 52 0c0-10 0-47 0-80c-27 0-58 0-71 0c-100 0-98 77-98 89z"/>
    </symbol>
  
    <symbol id="icon-facebook-alt" viewBox="0 0 512 512">
      <path d="m486 102c0-40-36-76-76-76l-308 0c-40 0-76 36-76 76l0 308c0 40 36 76 76 76l154 0l0-174l-56 0l0-76l56 0l0-30c0-52 39-98 86-98l62 0l0 76l-62 0c-6 0-14 9-14 21l0 31l76 0l0 76l-76 0l0 174l82 0c40 0 76-36 76-76z"/>
    </symbol>
  
    <symbol id="icon-twitter-alt" viewBox="0 0 512 512">
      <path d="m434 238c26-2 44-13 50-29c-9 5-38 12-54 6c-1-4-2-8-2-11c-13-45-54-81-98-76c3-2 7-3 11-4c4-2 33-7 28-17c-4-8-38 7-45 9c9-3 23-9 25-19c-13 2-26 8-36 17c3-4 6-8 7-13c-35 22-56 67-73 111c-13-13-24-23-34-28c-29-16-64-32-119-52c-1 18 9 42 40 58c-7-1-19 1-29 3c4 21 17 38 52 46c-16 1-24 5-32 13c8 14 25 31 57 27c-35 16-14 44 15 40c-50 50-127 47-171 4c116 158 368 94 405-59c29 1 45-9 55-20c-16 2-39 0-52-6z"/>
    </symbol>
  
    <symbol id="icon-twitter" viewBox="0 0 512 512">
      <path d="m481 117c-13 18-28 34-46 47c0 3 0 7 0 12c0 25-3 50-11 74c-7 25-18 49-33 71c-14 23-32 43-52 61c-21 17-45 31-74 41c-29 11-60 16-92 16c-52 0-99-14-142-42c7 1 14 2 22 2c43 0 81-14 115-40c-20 0-38-6-54-18c-16-12-27-27-33-46c7 1 13 2 18 2c8 0 16-1 24-4c-21-4-39-15-53-31c-14-17-21-37-21-59l0-1c13 7 27 11 42 11c-13-8-23-19-30-32c-8-14-11-29-11-44c0-17 4-33 12-47c23 28 51 51 84 68c33 17 69 27 107 29c-2-8-3-15-3-22c0-25 9-47 27-65c18-18 40-27 66-27c26 0 49 10 67 29c21-4 40-11 59-22c-7 22-21 39-41 51c18-2 35-7 53-14z"/>
    </symbol>
  
    <symbol id="icon-twitter-square" viewBox="0 0 512 512">
      <path d="m402 174c-10 5-22 8-34 10c13-8 22-19 26-33c-12 7-25 12-38 14c-12-12-26-19-44-19c-16 0-30 6-42 18c-12 12-18 26-18 42c0 6 1 10 2 14c-25-1-48-8-69-19c-22-11-40-25-55-44c-6 10-9 20-9 30c0 22 9 39 26 50c-9 0-18-2-28-7l0 1c0 14 5 27 14 38c10 11 21 18 35 20c-5 2-10 3-14 3c-3 0-6-1-11-1c4 12 11 21 21 29c10 8 22 12 35 12c-23 17-47 26-75 26c-5 0-10 0-14-1c28 18 59 27 92 27c21 0 41-3 60-10c18-7 34-16 48-27c13-12 25-25 34-39c10-15 17-31 22-47c4-16 7-32 7-48c0-3-1-6-1-8c12-8 22-19 30-31z m73-55l0 274c0 23-8 42-24 58c-16 16-35 24-58 24l-274 0c-23 0-42-8-58-24c-16-16-24-35-24-58l0-274c0-23 8-42 24-58c16-16 35-24 58-24l274 0c23 0 42 8 58 24c16 16 24 35 24 58z"/>
    </symbol>
  
    <symbol id="icon-twitter-1" viewBox="0 0 512 512">
      <path d="m370 371l-114 0c-16 0-29-5-40-16c-11-12-17-25-17-41l0-40l162 0c15 0 28-6 38-16c11-11 16-23 16-38c0-14-5-27-16-37c-10-11-23-16-38-16l-162 0l0-84c0-16-5-29-16-40c-12-12-25-17-41-17c-16 0-30 5-41 16c-11 11-17 25-17 41l0 231c0 48 17 88 51 122c33 34 74 50 121 50l114 0c16 0 29-5 41-17c11-11 17-24 17-40c0-16-6-30-17-41c-12-11-25-17-41-17z"/>
    </symbol>
  
    <symbol id="icon-google-plus" viewBox="0 0 512 512">
      <path d="m269 419c0-4-1-8-2-12c-1-4-1-7-2-10c-1-3-3-7-5-10c-3-4-5-6-6-9c-2-2-5-5-8-8c-3-4-6-6-8-8c-2-1-5-4-9-7c-4-3-7-5-9-6c-1-2-5-4-9-7c-5-3-8-5-9-6c-3 0-8-1-14-1c-11 0-21 1-31 2c-9 2-20 4-30 8c-11 3-20 7-28 13c-8 5-15 12-20 21c-5 9-8 19-8 31c0 13 4 24 10 34c7 11 16 19 27 24c11 6 22 11 34 13c12 3 24 5 37 5c11 0 22-1 32-4c10-2 19-6 28-11c9-5 16-12 22-21c5-9 8-19 8-31z m-35-247c0-11-1-23-4-36c-4-13-8-25-14-37c-6-12-14-22-24-30c-10-8-21-12-34-12c-18 0-31 7-41 20c-10 13-15 29-15 47c0 9 1 18 4 28c2 10 5 20 10 30c4 10 10 19 16 27c6 8 13 14 22 19c9 5 18 7 28 7c18 0 32-5 40-17c8-11 12-27 12-46z m-37-135l125 0l-39 22l-38 0c13 9 24 21 31 36c7 16 11 32 11 48c0 15-2 27-6 38c-5 11-10 20-16 26c-7 7-13 13-19 19c-7 5-12 11-16 17c-5 6-7 13-7 20c0 5 2 9 5 14c3 5 7 9 12 14c5 4 11 9 17 14c6 4 12 10 18 15c6 6 12 13 17 19c5 7 9 15 12 25c3 9 5 19 5 30c0 30-13 57-40 81c-29 25-69 37-120 37c-11 0-23-1-34-3c-12-2-23-5-35-9c-12-5-22-10-31-17c-9-7-16-15-22-25c-6-11-9-22-9-35c0-12 4-25 11-39c6-12 15-22 27-31c12-9 26-16 42-21c15-4 30-8 44-10c14-2 28-3 43-4c-12-16-18-30-18-42c0-3 0-5 0-7c1-2 1-4 2-6c0-1 1-3 2-6c1-2 1-4 2-6c-8 1-14 2-20 2c-29 0-53-10-73-28c-20-19-31-43-31-71c0-26 9-50 28-71c18-21 40-35 66-41c18-4 36-5 54-5z m297 73l0 36l-73 0l0 73l-37 0l0-73l-73 0l0-36l73 0l0-73l37 0l0 73z"/>
    </symbol>
  
    <symbol id="icon-google" viewBox="0 0 512 512">
      <path d="m407 26l-125 0c-32 0-73 4-108 33c-26 22-39 53-39 81c0 47 37 95 101 95c6 0 12-1 19-1c-3 7-6 13-6 23c0 19 10 30 18 41c-27 2-78 5-115 28c-36 21-47 52-47 74c0 45 42 86 130 86c104 0 159-57 159-114c0-42-24-62-50-85l-22-17c-7-5-16-12-16-26c0-13 9-21 17-29c25-20 51-41 51-86c0-46-29-70-43-82l37 0z m-53 370c0 37-31 65-89 65c-65 0-107-31-107-74c0-43 39-57 52-62c26-9 58-10 64-10c6 0 9 0 14 1c46 32 66 49 66 80z m-49-195c-9 10-26 17-41 17c-52 0-75-67-75-108c0-15 3-32 13-45c10-12 26-19 42-19c50 0 77 67 77 111c0 11-2 30-16 44z"/>
    </symbol>
  
    <symbol id="icon-google-plus-1" viewBox="0 0 512 512">
      <path d="m230 455c0 7-1 14-3 20l-108 0c-18 0-35-5-49-16c-15-10-25-25-30-42c5-8 11-16 20-22c9-6 18-11 29-14c10-3 20-6 30-7c10-1 20-2 31-2c6 0 10 0 14 1c1 0 4 2 8 6c5 3 8 5 10 6c1 1 4 3 9 7c4 3 7 5 9 7c2 2 4 4 8 7c3 4 6 6 7 9c2 2 4 5 6 8c3 4 4 7 5 10c1 3 2 7 3 11c1 3 1 7 1 11z m-83-100c-45 1-82 9-110 24l0-124c19 23 45 34 78 34c6 0 12 0 20-1c-4 11-6 20-6 24c0 13 6 27 18 43z m49-146c0 19-4 34-12 46c-9 11-22 17-41 17c-9 0-19-2-27-7c-9-5-16-12-23-20c-6-8-11-17-16-26c-4-10-8-20-10-30c-2-10-3-19-3-28c0-19 5-34 15-48c10-13 23-19 41-19c13 0 24 4 34 11c10 8 18 18 24 30c6 12 10 25 13 37c3 13 5 25 5 37z m279-26l0 210c0 23-8 42-24 58c-16 16-35 24-58 24l-134 0c8-13 12-28 12-44c0-13-3-25-7-35c-4-11-9-20-16-27c-6-7-13-14-20-20c-7-7-14-13-21-17c-6-5-11-10-16-16c-4-5-6-11-6-17c0-7 2-13 7-19c4-6 9-12 16-18c6-5 12-12 18-18c7-7 12-16 16-27c5-11 7-23 7-37c0-14-3-28-8-42c-5-14-12-25-21-34c-1-1-3-2-4-3c-2-1-3-2-4-2c-1 0-2-1-3-3c-1-1-2-3-3-5l39 0l38-18l-124 0c-27 0-50 4-70 11c-21 7-38 20-52 38c0-24 7-44 23-61c15-16 35-24 59-24l274 0c23 0 42 8 58 24c16 16 24 35 24 58l0 27l-73 0l0-73l-36 0l0 73l-73 0l0 37l73 0l0 73l36 0l0-73z"/>
    </symbol>
  
    <symbol id="icon-linkedin" viewBox="0 0 512 512">
      <path d="m486 306l0 170l-98 0l0-159c0-40-15-67-50-67c-28 0-44 18-51 36c-3 7-3 15-3 24l0 166l-99 0c0 0 1-269 0-297l99 0l0 42c-1 0-1 1-1 1l1 0l0-1c13-20 36-49 89-49c65 0 113 43 113 134z m-404-270c-34 0-56 22-56 51c0 29 21 52 54 52l1 0c34 0 56-23 56-52c-1-29-22-51-55-51z m-51 440l99 0l0-297l-99 0z"/>
    </symbol>
  
    <symbol id="icon-linkedin-alt" viewBox="0 0 512 512">
      <path d="m450 29l-393 0c-19 0-34 14-34 33l0 394c0 19 15 34 34 34l393 0c19 0 34-15 34-34l0-394c0-19-15-33-34-33z m-287 385l-70 0l0-208l70 0z m-35-236l0 0c-24 0-39-16-39-36c0-20 16-36 39-36c24 0 39 16 39 36c0 20-15 36-39 36z m286 236l-70 0l0-111c0-28-10-47-35-47c-19 0-31 13-36 25c-2 5-2 11-2 17l0 116l-70 0c0 0 1-188 0-208l70 0l0 30c9-14 26-35 63-35c45 0 80 30 80 94z m-143-177c0-1 0-1 0-1l0 1z"/>
    </symbol>
  
    <symbol id="icon-linkedin-square" viewBox="0 0 512 512">
      <path d="m104 404l66 0l0-198l-66 0z m71-259c-1-10-4-19-11-25c-6-6-15-10-26-10c-11 0-20 4-27 10c-7 6-11 15-11 25c0 9 4 17 10 24c7 7 16 10 27 10l0 0c11 0 20-3 27-10c7-7 11-15 11-24z m167 259l66 0l0-114c0-29-7-51-21-66c-14-15-32-23-55-23c-26 0-46 11-60 34l1 0l0-29l-66 0c0 12 0 78 0 198l66 0l0-111c0-7 0-12 2-16c2-7 7-12 12-17c6-5 13-7 22-7c22 0 33 15 33 45z m133-285l0 274c0 23-8 42-24 58c-16 16-35 24-58 24l-274 0c-23 0-42-8-58-24c-16-16-24-35-24-58l0-274c0-23 8-42 24-58c16-16 35-24 58-24l274 0c23 0 42 8 58 24c16 16 24 35 24 58z"/>
    </symbol>
  
    <symbol id="icon-video-play" viewBox="0 0 512 512">
      <path d="m254 10c-134 0-243 109-243 243 0 134 109 244 243 244 135 0 244-110 244-244 0-134-109-243-244-243z m-77 362l0-234 203 117z m77 99c-120 0-217-98-217-218 0-120 97-217 217-217 121 0 218 97 218 217 0 120-97 218-218 218z"/>
    </symbol>
  
    <symbol id="icon-search" viewBox="0 0 512 512">
      <path d="m450 395c10 12 11 22 3 32c0 0-24 24-24 24c-12 10-24 10-35 0c0 0-97-98-97-98c-25 15-52 22-80 22c-44 0-82-16-114-49c-33-32-49-70-49-114c0-44 16-81 46-112c31-31 68-47 112-47c44 0 82 16 115 49c32 32 49 70 49 114c0 30-8 58-24 83c0 0 98 96 98 96m-348-183c0 30 12 57 35 80c23 23 50 35 80 35c30 0 56-11 77-33c22-21 33-47 33-78c0-30-12-56-35-79c-23-23-50-35-80-35c-30 0-56 11-77 33c-22 21-33 47-33 77"/>
    </symbol>
  
    <symbol id="icon-playback-fast-forward" viewBox="0 0 512 512">
      <path d="m64 384l192-128-192-128z m384-128l-192-128 0 256z"/>
    </symbol>
  
    <symbol id="icon-playback-pause" viewBox="0 0 512 512">
      <path d="m128 416l96 0 0-320-96 0z m160-320l0 320 96 0 0-320z"/>
    </symbol>
  
    <symbol id="icon-playback-play" viewBox="0 0 512 512">
      <path d="m128 96l256 160-256 160z"/>
    </symbol>
  
    <symbol id="icon-playback-rewind" viewBox="0 0 512 512">
      <path d="m256 256l192 128 0-256z m-192 0l192 128 0-256z"/>
    </symbol>
  
    <symbol id="icon-tumblr" viewBox="0 0 512 512">
      <path d="m296 402c-7-4-14-12-17-20c-3-7-3-23-3-49l0-119l108 0l0-82l-108 0l0-106l-66 0c-3 23-8 43-16 58c-8 16-18 29-31 40c-13 11-35 19-53 25l0 65l63 0l0 162c0 21 2 37 7 48c4 11 12 22 24 32c11 9 25 17 42 22c16 6 29 8 50 8c18 0 36-1 52-5c16-4 34-10 54-20l0-72c-23 15-47 22-70 22c-14 0-25-3-36-9z"/>
    </symbol>
  
    <symbol id="icon-share" viewBox="0 0 512 512">
      <path d="m384 333c21 0 39 7 54 22c15 14 23 33 23 55c0 21-8 39-23 54c-15 15-33 22-54 22c-21 0-39-7-54-22c-15-15-23-33-23-54c0-2 0-5 1-8c0-2 0-4 0-6c0 0-133-80-133-80c-14 11-30 17-47 17c-21 0-39-8-54-23c-15-15-23-33-23-54c0-21 8-39 23-54c15-15 33-23 54-23c18 0 34 5 47 16c0 0 133-80 133-80c0-2 0-4 0-6c-1-3-1-5-1-7c0-21 8-39 23-54c15-15 33-22 54-22c21 0 39 7 54 22c15 14 23 33 23 54c0 22-8 40-23 55c-15 15-33 22-54 22c-18 0-33-5-46-16c0 0-134 80-134 80c0 2 1 7 1 13c0 5-1 10-1 12c0 0 134 80 134 80c12-10 28-15 46-15"/>
    </symbol>
  
    <symbol id="icon-pinterest" viewBox="0 0 512 512">
      <path d="m222 338c-9 44-19 80-29 108c-11 28-28 50-50 66c-2-25-3-46-3-61c-1-16 1-35 5-57c5-22 8-39 12-53c3-14 8-31 13-51c5-20 10-37 12-50c-8-18-11-38-9-60c1-22 9-40 24-54c15-14 32-18 51-10c13 5 21 15 22 30c2 15-1 31-6 49c-6 17-12 35-17 52c-5 18-6 33-2 46c4 14 15 22 33 25c23 5 43-1 61-19c19-18 31-40 38-67c8-27 9-55 6-84c-3-28-13-50-28-65c-21-22-47-34-77-36c-30-2-58 4-83 17c-26 13-46 33-62 60c-16 27-21 56-16 87c1 7 5 16 11 27c6 10 10 18 11 24c1 5-2 17-9 34c-50-12-74-51-72-118c2-47 20-87 54-120c35-32 74-52 119-57c56-6 106 4 149 29c43 26 67 63 74 112c9 60-3 115-34 163c-32 48-75 70-129 66c-8-1-15-3-22-5c-7-2-12-5-15-7c-3-2-9-5-16-10c-7-5-12-9-16-11"/>
    </symbol>
  
    <symbol id="icon-pinterest-1" viewBox="0 0 512 512">
      <path d="m475 256c0 40-9 77-29 110c-20 34-46 60-80 80c-33 20-70 29-110 29c-21 0-42-3-62-9c11-17 18-33 22-47c2-6 7-26 15-60c4 8 11 14 21 19c10 6 21 9 33 9c23 0 43-7 62-20c18-13 32-31 42-54c9-23 14-48 14-77c0-22-5-42-17-61c-11-19-27-35-49-47c-21-12-46-18-73-18c-20 0-38 3-56 9c-17 5-32 12-44 22c-12 9-22 19-31 31c-9 12-15 24-19 37c-4 13-6 26-6 38c0 20 4 38 11 53c8 15 19 25 34 31c5 3 9 1 10-5c1-2 2-5 3-9c1-5 2-8 2-9c1-4 0-8-3-12c-10-12-15-26-15-43c0-29 10-54 30-74c20-21 46-31 78-31c29 0 51 8 68 23c16 16 24 36 24 61c0 32-7 60-20 83c-13 22-30 34-50 34c-12 0-21-5-28-13c-7-8-9-18-7-30c2-6 4-15 8-26c4-12 6-21 9-30c2-8 3-16 3-21c0-10-3-18-8-24c-5-6-12-10-22-10c-12 0-22 6-30 17c-8 11-12 24-12 40c0 14 2 26 7 35l-28 120c-4 13-5 30-4 50c-39-17-71-44-95-80c-24-36-36-77-36-121c0-40 9-77 29-110c20-34 46-60 80-80c33-20 70-29 110-29c40 0 77 9 110 29c34 20 60 46 80 80c20 33 29 70 29 110z"/>
    </symbol>
  
    <symbol id="icon-pinterest-square" viewBox="0 0 512 512">
      <path d="m393 37c23 0 42 8 58 24c16 16 24 35 24 58l0 274c0 23-8 42-24 58c-16 16-35 24-58 24l-207 0c16-23 26-43 31-60c2-6 7-26 15-59c4 7 11 14 21 19c10 5 21 8 32 8c35 0 63-14 85-42c21-28 32-64 32-107c0-16-3-31-10-46c-6-15-16-29-27-40c-12-12-27-21-44-28c-17-7-36-10-56-10c-20 0-38 2-56 8c-17 5-32 13-43 22c-12 9-23 19-31 31c-9 12-15 24-19 37c-4 12-6 25-6 37c0 20 3 37 11 52c8 15 19 25 33 31c3 1 5 1 7 0c2-1 3-2 4-5c2-9 3-14 4-18c2-4 1-8-3-12c-9-11-14-26-14-42c0-29 10-53 30-74c19-20 45-30 77-30c28 0 50 8 66 23c16 15 24 35 24 60c0 32-6 59-19 82c-13 22-30 33-50 33c-11 0-20-4-27-12c-7-8-10-18-7-30c2-6 4-15 8-26c3-11 6-21 8-29c2-8 3-16 3-21c0-10-2-18-7-24c-5-6-13-9-22-9c-12 0-21 5-30 16c-8 11-12 24-12 40c0 14 3 25 7 35l-28 118c-4 19-5 43-2 72l-52 0c-23 0-42-8-58-24c-16-16-24-35-24-58l0-274c0-23 8-42 24-58c16-16 35-24 58-24z"/>
    </symbol>
  
    <symbol id="icon-heart" viewBox="0 0 512 512">
      <path d="m256 432c200-157 192-212 192-256 0-43-36-96-96-96-60 0-96 64-96 64 0 0-36-64-96-64-60 0-96 53-96 96 0 44-7 99 192 256z"/>
    </symbol>
  
    <symbol id="icon-letter-mail" viewBox="0 0 512 512">
      <path d="m475 430l0-220c-6 7-12 13-19 19c-51 39-92 72-122 97c-10 8-18 14-24 19c-6 4-14 9-24 14c-11 4-21 7-30 7l0 0c-9 0-19-3-30-7c-10-5-18-10-24-14c-6-5-14-11-24-19c-30-25-71-58-122-97c-7-6-13-12-19-19l0 220c0 2 0 4 2 6c2 2 4 3 7 3l420 0c3 0 5-1 7-3c2-2 2-4 2-6z m0-301l0-7c0 0 0-1 0-3c0-3 0-4-1-4c0 0-1-1-1-2c-1-2-2-3-3-3c-1 1-2 1-4 0l-420 0c-3 0-5 1-7 2c-2 2-2 4-2 7c0 32 14 59 42 81c36 29 75 59 114 91c1 1 5 3 10 8c6 5 10 8 13 11c4 2 8 5 13 9c5 3 10 6 14 8c5 1 9 2 13 2l0 0c4 0 8-1 13-2c4-2 9-5 14-8c5-4 9-7 13-9c3-3 7-6 13-11c5-5 9-7 10-8c39-32 78-62 114-91c11-8 20-19 29-33c9-14 13-26 13-38z m37-10l0 311c0 12-4 23-13 32c-9 9-20 13-33 13l-420 0c-13 0-24-4-33-13c-9-9-13-20-13-32l0-311c0-13 4-23 13-32c9-9 20-14 33-14l420 0c13 0 24 5 33 14c9 9 13 19 13 32z"/>
    </symbol>
  
    <symbol id="icon-email-envelope" viewBox="0 0 512 512">
      <path d="m512 203l0 227c0 12-4 23-13 32c-9 9-20 13-33 13l-420 0c-13 0-24-4-33-13c-9-9-13-20-13-32l0-227c8 9 18 17 29 25c69 47 116 79 142 98c11 8 20 15 26 19c7 4 16 9 27 14c12 4 22 7 32 7l0 0c10 0 20-3 32-7c11-5 20-10 27-14c6-4 15-11 26-19c33-23 80-56 142-98c11-8 21-16 29-25z m0-84c0 15-5 29-14 43c-9 14-21 25-35 35c-71 50-116 81-134 93c-1 1-6 4-12 9c-6 4-11 8-15 11c-4 2-9 5-15 9c-6 3-11 6-16 8c-6 1-10 2-15 2l0 0c-5 0-9-1-15-2c-5-2-10-5-16-8c-6-4-11-7-15-9c-4-3-9-7-15-11c-6-5-11-8-12-9c-18-12-43-30-75-52c-33-23-52-36-59-41c-12-8-23-19-33-33c-11-14-16-27-16-39c0-15 4-27 12-37c8-10 19-15 34-15l420 0c13 0 23 5 32 14c9 9 14 19 14 32z"/>
    </symbol>
  
</svg>
