<svg xmlns="http://www.w3.org/2000/svg"><symbol id="delicious" viewBox="0 0 10 10"><path d="M2 5h3v3H2z"/><path d="M5 5h3v3H5z" fill="#ddd"/><path d="M2 2h3v3H2z" fill="#fff"/><path d="M5 2h3v3H5z" fill="#3274d1"/></symbol><symbol id="dribbble" viewBox="0 0 800 800"><path fill="#ea4c89" d="M400 665c-146 0-265-119-265-265s119-265 265-265 265 119 265 265-119 265-265 265zm223-229s-69-22-140-9c30 81 43 161 43 161s82-49 97-152zM488 609s-15-90-48-172c-132 44-179 142-179 142s96 83 227 30zm-256-57c80-128 193-152 193-152s-12-27-19-39c-124 37-232 32-232 32s-8 87 58 159zm-54-198s102 2 210-28c-38-71-84-130-84-130-107 49-126 158-126 158zm169-174s50 65 85 134c84-31 118-83 118-83s-76-78-203-51zm102 167c6 11 20 44 20 44s64-11 157 7c0-85-51-141-51-141s-38 55-126 90z"/></symbol><symbol id="email" viewBox="0 0 800 800"><path d="M627 180c29 0 53 24 53 53v334c0 29-24 53-53 53H173c-29 0-53-24-53-53V233c0-29 24-53 53-53h454zm-7 113v-53L400 387 180 240v53l220 147z"/></symbol><symbol id="facebook" viewBox="0 0 800 800"><path fill="#3b5998" d="M445 643h-90V419h-75v-87h75v-64q0-55 32-86 30-29 80-29 28 0 67 3v78h-47q-42 0-42 38v60h86l-11 87h-75v224z"/></symbol><symbol id="facebook_square" viewBox="0 0 800 800"><path fill="#3b5998" d="M604 170c15 0 26 11 26 26v408c0 15-11 26-26 26H487V452h60l9-70h-69v-44c0-20 6-34 35-34h37v-62s-24-3-54-3c-53 0-89 33-89 92v51h-60v70h60v178H196c-15 0-26-11-26-26V196c0-15 11-26 26-26h408z"/></symbol><symbol id="flickr" viewBox="0 0 800 800"><circle fill="#FE0084" cx="234" cy="400" r="136" class="flickr-blue"/><circle fill="#FE0084" cx="566" cy="400" r="136" class="flickr-pink"/></symbol><symbol id="github" viewBox="0 0 800 800"><path fill="#383940" d="M400 139c144 0 260 116 260 260 0 115-75 213-178 247-9 3-17-2-17-13v-71c0-35-18-48-18-48 57-6 119-28 119-128 0-44-27-70-27-70s14-29-2-69c0 0-22-7-72 27-42-12-88-12-130 0-50-34-72-27-72-27-16 40-2 69-2 69s-27 26-27 70c0 100 62 122 119 128 0 0-14 10-17 35-15 7-53 18-76-22 0 0-13-25-39-27 0 0-26 0-2 16 0 0 17 8 29 38 0 0 16 51 88 35v44c0 11-9 16-18 13-103-34-178-132-178-247 0-144 116-260 260-260z"/></symbol><symbol id="github_ring" viewBox="0 0 800 800"><path fill="#383940" d="M400 177c-127 0-223 103-223 223 0 104 72 188 160 214v-41c0-33 17-46 17-46-73-8-116-43-116-126 0-45 27-69 27-69s-14-26 2-67c25-6 71 26 71 26s24-9 63-9 63 9 63 9 46-32 71-26c16 41 2 67 2 67s27 24 27 69c0 83-43 118-116 126 0 0 17 13 17 46v41c87-27 158-109 158-214 0-120-96-223-223-223zm0-42c146 0 265 119 265 265S546 665 400 665 135 546 135 400s119-265 265-265z"/></symbol><symbol id="good" viewBox="0 0 32 31"><title>good</title><g stroke="currentColor" fill="none" fill-rule="evenodd"><path d="M.5 30.5v-16h9.685c4.413-.307 4.359-3.5 3.875-8-.643-5.975 2.834-5.992 2.905-6C23 0 21.324 10 20.84 11.5c10.661-4 11.661 3 9.686 10-1.976 7-3.39 8.5-9.686 9H.5zM9.5 14.5v16" /></g></symbol><symbol id="google" viewBox="0 0 800 800"><path fill="#567EF0" d="M651 363c23 168-80 297-246 297-144 0-260-116-260-260s116-260 260-260c70 0 130 26 175 68l-71 68c-19-19-53-40-104-40-89 0-161 73-161 164s72 164 161 164c104 0 142-74 148-112H405v-89h246z"/></symbol><symbol id="googleplus" viewBox="0 0 800 800"><path fill="#dd4b39" d="M487 370c21 129-62 237-195 237-114 0-207-93-207-207s93-207 207-207c89 0 138 54 138 54l-56 54s-29-32-82-32c-71 0-128 59-128 131 0 73 57 131 128 131 81 0 113-58 117-90H292v-71h195zm189-59v59h59v60h-59v59h-59v-59h-59v-60h59v-59h59z"/></symbol><symbol id="instagram" viewBox="0 0 800 800"><path fill="#383940" d="M150 400c0-119 0-166 42-208s88-42 208-42 166 0 208 42 42 89 42 208 0 166-42 208-88 42-208 42-166 0-208-42-42-89-42-208zm455 0c0-114 0-148-29-176-29-29-62-29-176-29s-148 0-176 29c-29 29-29 62-29 176s0 148 29 176c29 29 62 29 176 29s148 0 176-29c29-29 29-62 29-176zM400 272a128 128 0 1 1 0 256 128 128 0 0 1 0-256zm0 211c46 0 83-37 83-83s-37-83-83-83-83 37-83 83 37 83 83 83zm163-216c0 16-13 30-30 30-16 0-30-14-30-30 0-17 14-30 30-30 17 0 30 13 30 30z"/></symbol></svg>